<svg width="152" height="35" viewBox="0 0 152 35" fill="none" xmlns="http://www.w3.org/2000/svg">
<path d="M0.654053 10.7024V34.4568H8.49936V28.2467H11.0465C17.0919 28.2467 21.7107 26.1427 21.7107 19.4915C21.7107 12.8063 17.0919 10.7024 11.0465 10.7024H0.654053ZM13.9333 19.4915C13.9333 21.1204 12.7786 21.7991 10.9786 21.7991H8.49936V17.15H10.9786C12.7786 17.15 13.9333 17.8287 13.9333 19.4915Z" fill="white"/>
<path d="M24.0695 10.7024V34.4568H42.0696V27.6019H31.9148V10.7024H24.0695Z" fill="white"/>
<path d="M50.3132 34.4568L51.366 31.3008H59.5849L60.6038 34.4568H68.551L59.6868 10.7024H51.2641L42.366 34.4568H50.3132ZM54.8302 20.5774C55.0679 19.6951 55.3056 18.7449 55.4755 17.5233C55.6453 18.7449 55.883 19.6951 56.1547 20.5774L57.8189 25.6337H53.166L54.8302 20.5774Z" fill="white"/>
<path d="M68.0259 22.8171C68.0259 31.4705 74.5127 34.9997 81.2373 34.9997C83.7505 34.9997 86.0939 34.5246 88.1995 33.5744V26.4142C86.9769 27.5001 84.7014 28.1109 82.2561 28.1109C79.1316 28.1109 76.075 26.5499 76.075 22.8171C76.075 18.5753 79.1656 16.9464 82.4259 16.9464C84.5316 16.9464 86.7052 17.659 88.0297 18.5753V11.5847C85.9241 10.6345 83.4788 10.1594 81.0335 10.1594C74.5127 10.1594 67.9919 13.7904 68.0259 22.8171Z" fill="white"/>
<path d="M91.0656 10.7024V34.4568H109.269V28.2127H98.911V25.3962H107.843V19.6272H98.911V16.8785H109.066V10.7024H91.0656Z" fill="white"/>
<rect x="127.845" y="10.6423" width="7.93625" height="23.8088" fill="#4656E3"/>
<path d="M151.654 18.5787C142.13 18.5787 135.834 29.1868 135.781 34.4512H127.845C127.845 26.5149 135.781 10.6424 151.654 10.6424V18.5787Z" fill="#4D5EF6"/>
<path d="M118.401 10.6423L112.772 10.6423C112.772 19.872 118.401 26.2506 123.295 26.2506C127.845 26.2506 133.329 19.7058 133.329 10.6423L127.845 10.6423C127.845 14.0492 125.253 20.1323 123.295 20.1323C121.337 20.1323 118.401 14.1177 118.401 10.6423Z" fill="#F64D4D"/>
<path d="M151.654 26.5148C142.13 26.5148 135.834 15.9067 135.781 10.6423H127.845C127.845 18.5786 135.781 34.4511 151.654 34.4511V26.5148Z" fill="#FE5F5F"/>
<rect x="110.465" y="10.6423" width="7.93625" height="23.8088" fill="#E34646"/>
<rect x="127.845" y="0.642578" width="7.93625" height="7.93625" fill="#FE5F5F"/>
<path d="M50.9227 8.41815H49.2058V3.62888H49.1686L47.2709 8.33841H46.1547L44.2624 3.62888H44.2198V8.41815H42.5029V0.747878H44.7567L46.6915 5.67535H46.7341L48.6689 0.747878H50.9227V8.41815Z" fill="white"/>
<path d="M56.6422 6.73313H54.1332L53.6442 8.41815H51.6562L54.2342 0.747878H56.6209L59.1989 8.41815H57.1259L56.6422 6.73313ZM54.5106 5.32984H56.2594L55.409 2.37442H55.3664L54.5106 5.32984Z" fill="white"/>
<path d="M63.0686 0.747878C64.2309 0.747878 65.1328 1.0739 65.7742 1.72593C66.4191 2.38505 66.7416 3.32235 66.7416 4.53783C66.7416 5.7604 66.4191 6.71364 65.7742 7.39757C65.1292 8.07795 64.2274 8.41815 63.0686 8.41815H59.9378V0.747878H63.0686ZM61.8886 6.84476H62.8081C64.1087 6.84476 64.7589 6.07755 64.7589 4.54315C64.7589 3.82732 64.5888 3.27628 64.2486 2.89002C63.9085 2.51085 63.4283 2.32127 62.8081 2.32127H61.8886V6.84476Z" fill="white"/>
<path d="M72.9554 8.41815H67.6984V0.747878H72.9554V2.32127H69.6492V3.84681H72.7588V5.282H69.6492V6.84476H72.9554V8.41815Z" fill="white"/>
<path d="M76.2564 8.41815V0.747878H78.2071V8.41815H76.2564Z" fill="white"/>
<path d="M79.3712 8.41815V0.747878H80.9287L84.1818 5.20758H84.2243V0.747878H86.0741V8.41815H84.5326L81.2636 3.91592H81.221V8.41815H79.3712Z" fill="white"/>
<path d="M89.4388 8.41815V0.747878H91.3896V4.11791H91.4321L94.042 0.747878H96.1363L93.4626 4.15511L96.2905 8.41815H93.9995L92.0434 5.4202L91.3896 6.24942V8.41815H89.4388Z" fill="white"/>
<path d="M100.15 0.61499C101.312 0.61499 102.233 0.971129 102.914 1.68341C103.594 2.39568 103.934 3.3631 103.934 4.58567C103.934 5.80823 103.594 6.77388 102.914 7.48262C102.233 8.19489 101.312 8.55103 100.15 8.55103C98.9837 8.55103 98.0605 8.19489 97.3802 7.48262C96.6998 6.77388 96.3596 5.80823 96.3596 4.58567C96.3596 3.3631 96.7015 2.39568 97.3855 1.68341C98.0659 0.971129 98.9872 0.61499 100.15 0.61499ZM100.15 2.19901C99.6038 2.19901 99.1679 2.4134 98.8419 2.84219C98.5124 3.27451 98.3476 3.85567 98.3476 4.58567C98.3476 5.31212 98.5106 5.89151 98.8366 6.32384C99.1626 6.75262 99.6003 6.96701 100.15 6.96701C100.695 6.96701 101.131 6.75262 101.457 6.32384C101.787 5.89151 101.951 5.31212 101.951 4.58567C101.951 3.85567 101.787 3.27451 101.457 2.84219C101.131 2.4134 100.695 2.19901 100.15 2.19901Z" fill="white"/>
<path d="M106.836 4.39963H107.99C108.348 4.39963 108.628 4.30218 108.83 4.10727C109.032 3.91237 109.133 3.64837 109.133 3.31526C109.133 2.9857 109.028 2.7217 108.819 2.52326C108.61 2.32127 108.332 2.22027 107.985 2.22027H106.836V4.39963ZM106.836 8.41815H104.886V0.747878H108.181C109.131 0.747878 109.861 0.971129 110.371 1.41763C110.874 1.85705 111.126 2.47719 111.126 3.27806C111.126 3.75999 111.013 4.19232 110.786 4.57504C110.552 4.97547 110.229 5.26605 109.818 5.44678L111.349 8.41815H109.159L107.846 5.73382H106.836V8.41815Z" fill="white"/>
<path d="M117.361 8.41815H112.104V0.747878H117.361V2.32127H114.055V3.84681H117.164V5.282H114.055V6.84476H117.361V8.41815Z" fill="white"/>
<path d="M123.022 6.73313H120.513L120.024 8.41815H118.036L120.614 0.747878H123.001L125.579 8.41815H123.506L123.022 6.73313ZM120.891 5.32984H122.639L121.789 2.37442H121.746L120.891 5.32984Z" fill="white"/>
</svg>
