<svg width="16" height="16" viewBox="0 0 16 16" fill="none" xmlns="http://www.w3.org/2000/svg">
<g clip-path="url(#clip0_111_164537)">
<path d="M9.78342 8.17515L15.6471 2.31125C16.0287 1.92983 16.0287 1.31312 15.6471 0.931697C15.2657 0.550274 14.649 0.550274 14.2676 0.931697L8.40369 6.7956L2.53996 0.931697C2.15836 0.550274 1.54183 0.550274 1.16041 0.931697C0.778806 1.31312 0.778806 1.92983 1.16041 2.31125L7.02413 8.17515L1.16041 14.0391C0.778809 14.4205 0.778809 15.0372 1.16041 15.4186C1.3505 15.6089 1.60043 15.7045 1.85019 15.7045C2.09994 15.7045 2.3497 15.6089 2.53996 15.4186L8.40369 9.55471L14.2676 15.4186C14.4579 15.6089 14.7076 15.7045 14.9574 15.7045C15.2071 15.7045 15.4569 15.6089 15.6471 15.4186C16.0287 15.0372 16.0287 14.4205 15.6471 14.0391L9.78342 8.17515Z" fill="black"/>
</g>
<defs>
<clipPath id="clip0_111_164537">
<rect width="16" height="16" fill="white"/>
</clipPath>
</defs>
</svg>
