<svg width="17" height="17" viewBox="0 0 17 17" fill="none" xmlns="http://www.w3.org/2000/svg">
<g clip-path="url(#clip0_111_175428)">
<path d="M9.95609 9.16868L15.8198 3.30478C16.2014 2.92336 16.2014 2.30665 15.8198 1.92523C15.4384 1.5438 14.8217 1.5438 14.4403 1.92523L8.57636 7.78913L2.71263 1.92523C2.33103 1.5438 1.7145 1.5438 1.33308 1.92523C0.951475 2.30665 0.951475 2.92336 1.33308 3.30478L7.1968 9.16868L1.33308 15.0326C0.951477 15.414 0.951477 16.0307 1.33308 16.4121C1.52316 16.6024 1.7731 16.698 2.02286 16.698C2.27261 16.698 2.52237 16.6024 2.71263 16.4121L8.57636 10.5482L14.4403 16.4121C14.6305 16.6024 14.8803 16.698 15.13 16.698C15.3798 16.698 15.6296 16.6024 15.8198 16.4121C16.2014 16.0307 16.2014 15.414 15.8198 15.0326L9.95609 9.16868Z" fill="#F64D4D"/>
</g>
<defs>
<clipPath id="clip0_111_175428">
<rect width="16" height="16" fill="white" transform="translate(0.172852 0.993652)"/>
</clipPath>
</defs>
</svg>
