<svg width="30" height="30" viewBox="0 0 30 30" fill="none" xmlns="http://www.w3.org/2000/svg">
<g clip-path="url(#clip0_111_141284)">
<path d="M15.1876 11.1338C13.536 11.1338 12.197 12.5038 12.197 14.194C12.197 15.884 13.5359 17.2541 15.1876 17.2541C16.8393 17.2541 18.1783 15.8841 18.1783 14.194C18.1783 12.5038 16.8393 11.1338 15.1876 11.1338ZM15.1876 15.7969C14.3225 15.7969 13.6211 15.0792 13.6211 14.1939C13.6211 13.3086 14.3225 12.5909 15.1876 12.5909C16.0528 12.5909 16.7542 13.3086 16.7542 14.1939C16.7542 15.0792 16.0528 15.7969 15.1876 15.7969Z" fill="black"/>
<path d="M27.1148 4.13911L7.67586 1.88049C6.92142 1.77073 6.15703 1.9961 5.57535 2.49983C4.99373 2.9613 4.6209 3.64536 4.54288 4.39419L4.18689 7.3815H3.08314C1.51661 7.3815 0.341721 8.80225 0.341721 10.4052V25.3052C0.302265 26.8338 1.48125 28.1057 2.97513 28.1461C3.01111 28.1471 3.04716 28.1473 3.08314 28.1468H22.6288C24.1954 28.1468 25.6195 26.9082 25.6195 25.3052V24.7223C26.1051 24.6263 26.5659 24.4278 26.9723 24.1395C27.5492 23.6425 27.9185 22.9387 28.0048 22.1722L29.6426 7.3815C29.8095 5.77484 28.6827 4.32955 27.1148 4.13911ZM24.1954 25.3052C24.1954 26.1067 23.4121 26.6896 22.6288 26.6896H3.08314C2.37559 26.7108 1.78517 26.1411 1.76439 25.4171C1.7633 25.3798 1.76378 25.3425 1.76582 25.3052V22.6094L7.28423 18.4563C7.94714 17.9355 8.88087 17.9818 9.49159 18.5656L13.3723 22.0629C13.9616 22.5692 14.7034 22.8522 15.4728 22.8644C16.0744 22.8719 16.6661 22.708 17.1818 22.3908L24.1954 18.2377V25.3052H24.1954ZM24.1954 16.5255L16.434 21.1522C15.7676 21.5562 14.924 21.483 14.3334 20.97L10.4172 17.4362C9.29478 16.4493 7.65425 16.3888 6.46532 17.2905L1.76582 20.7878V10.4052C1.76582 9.60373 2.29988 8.83872 3.08314 8.83872H22.6288C23.4657 8.87421 24.1415 9.55003 24.1954 10.4052V16.5255V16.5255ZM28.2198 7.18479C28.2193 7.1896 28.2189 7.19448 28.2184 7.19929L26.5451 21.99C26.5479 22.3735 26.377 22.7368 26.0822 22.9736C25.9398 23.1194 25.6194 23.1923 25.6194 23.2651V10.4052C25.5632 8.74556 24.2512 7.41908 22.6288 7.3815H5.61092L5.93134 4.53992C6.00085 4.17196 6.18886 3.83851 6.46539 3.59271C6.77763 3.3718 7.15516 3.26881 7.5335 3.30124L26.9368 5.59634C27.7197 5.67241 28.2942 6.38359 28.2198 7.18479Z" fill="black"/>
</g>
<defs>
<clipPath id="clip0_111_141284">
<rect width="29.3182" height="30" fill="white" transform="translate(0.34082)"/>
</clipPath>
</defs>
</svg>
