<svg width="16" height="16" viewBox="0 0 16 16" fill="none" xmlns="http://www.w3.org/2000/svg">
<g clip-path="url(#clip0_123_1299)">
<path d="M13.6569 2.34313C12.1458 0.832156 10.1369 0 8 0C5.86312 0 3.85416 0.832156 2.34313 2.34313C0.832156 3.85416 0 5.86312 0 8C0 10.1369 0.832156 12.1458 2.34313 13.6569C3.85416 15.1678 5.86312 16 8 16C10.1369 16 12.1458 15.1678 13.6569 13.6569C15.1678 12.1458 16 10.1369 16 8C16 5.86312 15.1678 3.85416 13.6569 2.34313ZM12.9939 12.9939C11.66 14.3279 9.88647 15.0625 8 15.0625C6.11353 15.0625 4.34 14.3279 3.00606 12.9939C1.67212 11.66 0.9375 9.88647 0.9375 8C0.9375 6.11353 1.67212 4.34 3.00606 3.00606C4.34 1.67212 6.11353 0.9375 8 0.9375C9.88647 0.9375 11.66 1.67212 12.9939 3.00606C14.3279 4.34 15.0625 6.11353 15.0625 8C15.0625 9.88647 14.3279 11.66 12.9939 12.9939Z" fill="black"/>
<path d="M8.00025 12.2382C6.31468 12.2382 4.78943 11.2399 4.11443 9.69507L3.25537 10.0704C4.07956 11.9568 5.94206 13.1757 8.00025 13.1757C10.0584 13.1757 11.9209 11.9568 12.7451 10.0705L11.8861 9.6951C11.211 11.2399 9.68578 12.2382 8.00025 12.2382Z" fill="black"/>
<path d="M5.17629 5.64453C5.69647 5.64453 6.11966 6.06772 6.11966 6.58791H7.05716C7.05716 5.55078 6.21341 4.70703 5.17629 4.70703C4.13916 4.70703 3.29541 5.55078 3.29541 6.58791H4.23291C4.23294 6.06772 4.6561 5.64453 5.17629 5.64453Z" fill="black"/>
<path d="M10.8237 5.64453C11.3439 5.64453 11.7671 6.06772 11.7671 6.58791H12.7046C12.7046 5.55078 11.8609 4.70703 10.8237 4.70703C9.78662 4.70703 8.94287 5.55078 8.94287 6.58791H9.88037C9.8804 6.06772 10.3036 5.64453 10.8237 5.64453Z" fill="black"/>
</g>
<defs>
<clipPath id="clip0_123_1299">
<rect width="16" height="16" fill="white"/>
</clipPath>
</defs>
</svg>
