<svg width="16" height="16" viewBox="0 0 16 16" fill="none" xmlns="http://www.w3.org/2000/svg">
<g clip-path="url(#clip0_111_137390)">
<path d="M12.8336 16H10.167C9.89103 16 9.66704 15.7761 9.66704 15.5001V11.1668C9.66704 11.0747 9.59233 11.0002 9.50029 11.0002H6.50035C6.40844 11.0002 6.33373 11.0747 6.33373 11.1668V15.5001C6.33373 15.7761 6.10974 16 5.83374 16H3.16717C2.52387 16 2.00045 15.4767 2.00045 14.8333V8.66683H0.833845C0.374504 8.66683 0.000488281 8.29282 0.000488281 7.83348C0.000488281 7.6129 0.0905743 7.39684 0.247187 7.24023L7.65438 0.139066C7.84774 -0.0463552 8.15303 -0.0463552 8.34638 0.139066L15.7463 7.23217C15.9102 7.39684 16.0002 7.6129 16.0002 7.83348C16.0002 8.29282 15.6263 8.66683 15.1669 8.66683H14.0002V14.8333C14.0002 15.4767 13.4769 16 12.8336 16ZM10.667 15.0001H12.8336C12.9243 15.0001 13.0002 14.924 13.0002 14.8333V8.16684C13.0002 7.89085 13.2242 7.66686 13.5002 7.66686H14.7542L8.00032 1.193L1.24656 7.66686H2.50044C2.77643 7.66686 3.00043 7.89085 3.00043 8.16684V14.8333C3.00043 14.924 3.07647 15.0001 3.16717 15.0001H5.33375V11.1668C5.33375 10.5235 5.85706 10.0002 6.50035 10.0002H9.50029C10.1437 10.0002 10.667 10.5235 10.667 11.1668V15.0001Z" fill="#4D5EF6"/>
</g>
<defs>
<clipPath id="clip0_111_137390">
<rect width="16" height="16" fill="white"/>
</clipPath>
</defs>
</svg>
