<svg width="17" height="16" viewBox="0 0 17 16" fill="none" xmlns="http://www.w3.org/2000/svg">
<g clip-path="url(#clip0_111_131441)">
<path d="M0.968748 15.9999H9.46908C9.72799 15.9999 9.93783 15.79 9.93783 15.5311V14.5311C9.93783 13.92 9.54586 13.3989 9.00033 13.2054V12.5955C9.00033 11.8534 8.39658 11.2498 7.65451 11.2498H2.78332C2.04125 11.2498 1.4375 11.8534 1.4375 12.5955V13.2054C0.891966 13.3989 0.5 13.92 0.5 14.5311V15.5311C0.5 15.79 0.709838 15.9999 0.968748 15.9999ZM2.78332 12.1873H7.65451C7.87961 12.1873 8.06284 12.3704 8.06284 12.5955V13.1249H2.37511V12.5955C2.37511 12.3704 2.55822 12.1873 2.78332 12.1873ZM1.4375 14.5311C1.4375 14.2726 1.64782 14.0624 1.90624 14.0624H8.53146C8.79001 14.0624 9.00033 14.2726 9.00033 14.5311V15.0624H1.4375V14.5311Z" fill="black"/>
<path d="M5.89963 9.75872C6.36459 10.3763 7.24765 10.5042 7.86898 10.0364C8.2828 9.72491 8.47531 9.22735 8.41891 8.74664C8.82199 8.67803 9.21151 8.56585 9.58187 8.41461L13.9708 14.2441C14.4359 14.862 15.319 14.9893 15.9401 14.5218C16.5595 14.0553 16.6842 13.1719 16.2177 12.5524L11.8289 6.72296C12.0765 6.40888 12.2919 6.06574 12.4693 5.69745C12.9211 5.88691 13.4517 5.83332 13.8609 5.52521C14.4804 5.05878 14.6051 4.17537 14.1386 3.55586L11.883 0.559901C11.4166 -0.0596029 10.5332 -0.184114 9.91366 0.282315C9.49984 0.593837 9.30734 1.09127 9.36373 1.57198C7.59738 1.87288 6.0914 3.00655 5.31357 4.62068C4.86264 4.43159 4.33432 4.48286 3.92172 4.79341C3.30075 5.26093 3.17649 6.14179 3.64402 6.76276L5.89963 9.75872ZM11.1775 7.41644L11.8034 8.24786L11.0544 8.8117L10.4284 7.9804C10.6937 7.81402 10.9442 7.6253 11.1775 7.41644ZM15.3762 13.7727C15.1696 13.9283 14.8752 13.8868 14.7197 13.6802L11.6182 9.56072L12.3673 8.99688L15.4687 13.1162C15.6242 13.3228 15.5826 13.6172 15.3762 13.7727ZM10.4776 1.03134C10.6848 0.87533 10.9791 0.918054 11.1341 1.12386L13.3896 4.11982C13.5451 4.32624 13.5036 4.6208 13.2971 4.77619C13.0902 4.93208 12.7966 4.8907 12.6407 4.68366L10.3851 1.6877C10.2296 1.48116 10.2711 1.18673 10.4776 1.03134ZM9.79171 2.45821C9.99471 2.72798 11.5296 4.76679 11.736 5.04084C11.0963 6.59601 9.66293 7.67547 7.99105 7.86041L6.04672 5.27766C6.68722 3.72066 8.11825 2.64339 9.79171 2.45821ZM4.48569 5.54243C4.69211 5.38691 4.98593 5.42756 5.14206 5.63495L7.39767 8.63091C7.39767 8.63091 7.39767 8.63091 7.39767 8.63104C7.55307 8.83746 7.51156 9.13189 7.30514 9.28741C7.0986 9.4428 6.80417 9.4013 6.64865 9.19488L4.39304 6.19892C4.23728 5.99189 4.27866 5.69831 4.48569 5.54243Z" fill="black"/>
</g>
<defs>
<clipPath id="clip0_111_131441">
<rect width="16" height="16" fill="white" transform="translate(0.5)"/>
</clipPath>
</defs>
</svg>
