<svg width="21" height="21" viewBox="0 0 21 21" fill="none" xmlns="http://www.w3.org/2000/svg">
<path d="M18.135 6.89885C18.6288 6.40507 18.6211 5.76738 18.1269 5.27316L15.6763 2.8225C15.182 2.32829 14.5444 2.32063 14.0506 2.81442L5.06767 11.7973L3.84555 16.287C3.71575 16.9102 4.03925 17.2337 4.66244 17.1039L9.1521 15.8818L18.135 6.89885ZM5.07008 15.8794L5.97068 12.5281L8.42133 14.9787L5.07008 15.8794ZM9.23013 14.1699C8.39159 13.3306 7.0172 11.957 6.77948 11.7193L12.0367 6.4621L14.4873 8.91275L9.23013 14.1699ZM15.2961 8.10395L12.8455 5.65329L14.4631 4.03569C14.8504 3.62308 14.8886 3.62652 15.2759 4.03974L16.9097 5.67351C17.3076 6.07702 17.3331 6.07025 16.9137 6.48636L15.2961 8.10396L15.2961 8.10395Z" fill="url(#paint0_linear_111_168480)"/>
<defs>
<linearGradient id="paint0_linear_111_168480" x1="21.5666" y1="-9.2455" x2="28.5175" y2="-1.75241" gradientUnits="userSpaceOnUse">
<stop stop-color="#F64D4D"/>
<stop offset="1" stop-color="#4D5EF6"/>
</linearGradient>
</defs>
</svg>
