<svg width="16" height="16" viewBox="0 0 16 16" fill="none" xmlns="http://www.w3.org/2000/svg">
<g clip-path="url(#clip0_111_165246)">
<path d="M8.61161 7.41731L8.61152 1.38627C8.61161 0.993876 8.30825 0.676728 7.93292 0.67682C7.55768 0.67682 7.25432 0.993968 7.25432 1.38627L7.25432 7.4174L1.48549 7.41731C1.11016 7.41741 0.806889 7.73446 0.806889 8.12676C0.806802 8.51915 1.11016 8.8363 1.48549 8.83621L7.25432 8.8363L7.25441 14.8673C7.25432 15.2597 7.55768 15.5769 7.93301 15.5768C8.1201 15.5769 8.29006 15.4975 8.41292 15.3691C8.53577 15.2406 8.61161 15.063 8.61161 14.8673L8.61152 8.8363L14.3804 8.8363C14.5676 8.8363 14.7375 8.75701 14.8603 8.62857C14.9832 8.50013 15.059 8.32254 15.059 8.12685C15.0591 7.73446 14.7558 7.41731 14.3804 7.4174L8.61161 7.41731Z" fill="black"/>
</g>
<defs>
<clipPath id="clip0_111_165246">
<rect width="16" height="16" fill="white" transform="translate(0 -0.000488281)"/>
</clipPath>
</defs>
</svg>
