<svg width="16" height="16" viewBox="0 0 16 16" fill="none" xmlns="http://www.w3.org/2000/svg">
<g clip-path="url(#clip0_111_137400)">
<path fill-rule="evenodd" clip-rule="evenodd" d="M6.78186 11.7371H0.468262C0.209595 11.7371 0 11.5273 0 11.2688V0.468262C0 0.209595 0.209595 0 0.468262 0H11.2688C11.5273 0 11.7371 0.209595 11.7371 0.468262V6.78174C13.0831 7.72351 13.6227 9.47449 13.0056 11.019L15.5717 13.5851C16.8816 14.8951 14.8895 16.876 13.5851 15.5717L11.019 13.0056C9.47449 13.6226 7.72339 13.0831 6.78186 11.7371ZM13.2042 12.542L12.542 13.2042L14.2472 14.9094C14.6891 15.3513 15.3381 14.6758 14.9094 14.2472L13.2042 12.542ZM12.542 13.2042L13.2042 12.542L12.5253 11.863C12.3346 12.1117 12.1117 12.3347 11.863 12.5253L12.542 13.2042ZM10.8005 6.3147V0.936523H8.10693V3.56055C8.10693 3.89685 7.74829 4.15588 7.39758 3.96191L5.86853 3.18774L4.30859 3.97754C3.99438 4.13635 3.63086 3.901 3.63123 3.56055L3.63013 0.936523H0.936523V10.8005H6.3147C5.41895 8.04468 8.04468 5.41895 10.8005 6.3147ZM7.84558 7.84558C6.82166 8.86951 6.82166 10.5299 7.84558 11.5538C8.86951 12.5778 10.5299 12.5778 11.5538 11.5538C12.5778 10.5299 12.5778 8.86951 11.5538 7.84558C10.5299 6.82166 8.86951 6.82166 7.84558 7.84558ZM7.17053 0.936523H4.56653V2.79993C6.11621 2.01526 5.61658 2.01306 7.17041 2.79993L7.17053 0.936523Z" fill="black"/>
</g>
<defs>
<clipPath id="clip0_111_137400">
<rect width="16" height="16" fill="white"/>
</clipPath>
</defs>
</svg>
