<svg width="17" height="17" viewBox="0 0 17 17" fill="none" xmlns="http://www.w3.org/2000/svg">
<g clip-path="url(#clip0_111_165298)">
<path d="M14.2295 2.00537H11.4795V1.50537C11.4795 0.678277 10.8066 0.00537109 9.97949 0.00537109H7.97949C7.1524 0.00537109 6.47949 0.678277 6.47949 1.50537V2.00537H3.72949C3.04024 2.00537 2.47949 2.56612 2.47949 3.25537V5.00537C2.47949 5.2815 2.70337 5.50537 2.97949 5.50537H3.25274L3.68471 14.5767C3.72287 15.3778 4.38099 16.0054 5.18299 16.0054H12.776C13.578 16.0054 14.2361 15.3778 14.2743 14.5767L14.7062 5.50537H14.9795C15.2556 5.50537 15.4795 5.2815 15.4795 5.00537V3.25537C15.4795 2.56612 14.9187 2.00537 14.2295 2.00537ZM7.47949 1.50537C7.47949 1.22968 7.7038 1.00537 7.97949 1.00537H9.97949C10.2552 1.00537 10.4795 1.22968 10.4795 1.50537V2.00537H7.47949V1.50537ZM3.47949 3.25537C3.47949 3.11753 3.59165 3.00537 3.72949 3.00537H14.2295C14.3673 3.00537 14.4795 3.11753 14.4795 3.25537V4.50537C14.3254 4.50537 4.11802 4.50537 3.47949 4.50537V3.25537ZM13.2754 14.5292C13.2627 14.7962 13.0433 15.0054 12.776 15.0054H5.18299C4.91565 15.0054 4.69627 14.7962 4.68359 14.5292L4.25387 5.50537H13.7051L13.2754 14.5292Z" fill="#FF4343"/>
<path d="M8.97949 14.0054C9.25562 14.0054 9.47949 13.7815 9.47949 13.5054V7.00537C9.47949 6.72925 9.25562 6.50537 8.97949 6.50537C8.70337 6.50537 8.47949 6.72925 8.47949 7.00537V13.5054C8.47949 13.7815 8.70334 14.0054 8.97949 14.0054Z" fill="#FF4343"/>
<path d="M11.4795 14.0054C11.7556 14.0054 11.9795 13.7815 11.9795 13.5054V7.00537C11.9795 6.72925 11.7556 6.50537 11.4795 6.50537C11.2034 6.50537 10.9795 6.72925 10.9795 7.00537V13.5054C10.9795 13.7815 11.2033 14.0054 11.4795 14.0054Z" fill="#FF4343"/>
<path d="M6.47949 14.0054C6.75562 14.0054 6.97949 13.7815 6.97949 13.5054V7.00537C6.97949 6.72925 6.75562 6.50537 6.47949 6.50537C6.20337 6.50537 5.97949 6.72925 5.97949 7.00537V13.5054C5.97949 13.7815 6.20334 14.0054 6.47949 14.0054Z" fill="#FF4343"/>
</g>
<defs>
<clipPath id="clip0_111_165298">
<rect width="16" height="16" fill="white" transform="translate(0.979492 0.00537109)"/>
</clipPath>
</defs>
</svg>
