<svg width="16" height="16" viewBox="0 0 16 16" fill="none" xmlns="http://www.w3.org/2000/svg">
<g clip-path="url(#clip0_111_175868)">
<path d="M13.5 0H2.5C1.39551 0 0.5 0.895489 0.5 2V14C0.5 15.1045 1.39551 16 2.5 16H13.5C14.6045 16 15.5 15.1045 15.5 14V2C15.5 0.895489 14.6045 0 13.5 0ZM14.5 14C14.5 14.5525 14.0525 15 13.5 15H2.5C1.9475 15 1.5 14.5525 1.5 14V3.99997H14.5V14H14.5ZM14.5 3H1.5V2C1.5 1.4475 1.9475 0.999998 2.5 0.999998H13.5C14.0525 0.999998 14.5 1.44799 14.5 2V3H14.5ZM12 8.99996C12.8285 8.99996 13.5 8.32849 13.5 7.49999C13.5 6.67148 12.8285 5.99999 12 5.99999C11.1715 5.99999 10.5 6.67148 10.5 7.49999C10.5 8.32849 11.1715 8.99996 12 8.99996ZM11.5 6.99999H12.5V7.99999H11.5V6.99999ZM12 13C12.8285 13 13.5 12.3285 13.5 11.5C13.5 10.6715 12.8285 9.99998 12 9.99998C11.1715 9.99998 10.5 10.6715 10.5 11.5C10.5 12.3285 11.1715 13 12 13ZM11.5 11H12.5V12H11.5V11ZM3.99999 8.99996C4.8285 8.99996 5.49999 8.32849 5.49999 7.49999C5.49999 6.67148 4.8285 5.99999 3.99999 5.99999C3.17149 5.99999 2.5 6.67148 2.5 7.49999C2.5 8.32849 3.17149 8.99996 3.99999 8.99996ZM3.49999 6.99999H4.49999V7.99999H3.49999V6.99999ZM7.99999 8.99996C8.82849 8.99996 9.49999 8.32849 9.49999 7.49999C9.49999 6.67148 8.82849 5.99999 7.99999 5.99999C7.17148 5.99999 6.49999 6.67148 6.49999 7.49999C6.49999 8.32849 7.17151 8.99996 7.99999 8.99996ZM7.49999 6.99999H8.49999V7.99999H7.49999V6.99999ZM3.99999 13C4.8285 13 5.49999 12.3285 5.49999 11.5C5.49999 10.6715 4.8285 9.99998 3.99999 9.99998C3.17149 9.99998 2.5 10.6715 2.5 11.5C2.5 12.3285 3.17149 13 3.99999 13ZM3.49999 11H4.49999V12H3.49999V11ZM7.99999 13C8.82849 13 9.49999 12.3285 9.49999 11.5C9.49999 10.6715 8.82849 9.99998 7.99999 9.99998C7.17148 9.99998 6.49999 10.6715 6.49999 11.5C6.49999 12.3285 7.17151 13 7.99999 13ZM7.49999 11H8.49999V12H7.49999V11Z" fill="black"/>
</g>
<defs>
<clipPath id="clip0_111_175868">
<rect width="16" height="16" fill="white"/>
</clipPath>
</defs>
</svg>
