<svg width="14" height="14" viewBox="0 0 14 14" fill="none" xmlns="http://www.w3.org/2000/svg">
<path d="M12.3765 4.40898C12.7292 4.05628 12.7237 3.60079 12.3707 3.24778L10.6202 1.49731C10.2672 1.1443 9.81173 1.13883 9.45903 1.49153L3.04267 7.90789L2.16972 11.1148C2.07701 11.5599 2.30808 11.791 2.75322 11.6983L5.96012 10.8253L12.3765 4.40898ZM3.04439 10.8236L3.68767 8.42987L5.43814 10.1803L3.04439 10.8236ZM6.01585 9.60262C5.41689 9.00311 4.43519 8.02196 4.26539 7.85216L8.02053 4.09702L9.77099 5.84749L6.01585 9.60262ZM10.3487 5.26977L8.59824 3.5193L9.75367 2.36387C10.0303 2.06915 10.0576 2.07161 10.3343 2.36676L11.5013 3.53375C11.7854 3.82196 11.8037 3.81713 11.5042 4.11435L10.3487 5.26978L10.3487 5.26977Z" fill="url(#paint0_linear_111_169703)"/>
<defs>
<linearGradient id="paint0_linear_111_169703" x1="14.8276" y1="-7.12269" x2="19.7926" y2="-1.77048" gradientUnits="userSpaceOnUse">
<stop stop-color="#F64D4D"/>
<stop offset="1" stop-color="#4D5EF6"/>
</linearGradient>
</defs>
</svg>
