<svg width="17" height="17" viewBox="0 0 17 17" fill="none" xmlns="http://www.w3.org/2000/svg">
<g clip-path="url(#clip0_111_164977)">
<path d="M8.70536 8.41158L8.70527 2.38053C8.70536 1.98814 8.402 1.67099 8.02667 1.67108C7.65143 1.67108 7.34807 1.98823 7.34807 2.38053L7.34807 8.41167L1.57924 8.41158C1.20391 8.41167 0.900639 8.72872 0.900639 9.12102C0.900552 9.51342 1.20391 9.83056 1.57924 9.83047L7.34807 9.83056L7.34816 15.8616C7.34807 16.254 7.65143 16.5711 8.02676 16.5711C8.21385 16.5711 8.38381 16.4918 8.50667 16.3633C8.62952 16.2349 8.70536 16.0573 8.70536 15.8616L8.70527 9.83056L14.4742 9.83056C14.6614 9.83056 14.8312 9.75128 14.9541 9.62284C15.077 9.4944 15.1528 9.31681 15.1528 9.12112C15.1529 8.72872 14.8495 8.41157 14.4742 8.41167L8.70536 8.41158Z" fill="black"/>
</g>
<defs>
<clipPath id="clip0_111_164977">
<rect width="16" height="16" fill="white" transform="translate(0.09375 0.993652)"/>
</clipPath>
</defs>
</svg>
